HIERARCHY
ROOT SpineBase
{
  OFFSET 0.000000 0.000000 0.000000
  CHANNELS 6 Xposition Yposition Zposition Zrotation Xrotation Yrotation
  JOINT SpineMid
  {
    OFFSET -0.000000 32.158722 0.000000
    CHANNELS 3 Zrotation Xrotation Yrotation
    JOINT SpineShoulder
    {
      OFFSET 0.120229 23.901260 -0.879485
      CHANNELS 3 Zrotation Xrotation Yrotation
      JOINT Neck
      {
        OFFSET 0.074558 7.904573 -0.643307
        CHANNELS 3 Zrotation Xrotation Yrotation
        JOINT Head
        {
          OFFSET 1.846466 13.122062 0.910589
          CHANNELS 3 Zrotation Xrotation Yrotation
          End Site
          {
            OFFSET 0 0 0
          }
        }
      }
      JOINT ShoulderLeft
      {
        OFFSET -11.131294 -4.564222 -2.105792
        CHANNELS 3 Zrotation Xrotation Yrotation
        JOINT ElbowLeft
        {
          OFFSET 19.913644 -22.139804 -12.143631
          CHANNELS 3 Zrotation Xrotation Yrotation
          JOINT WristLeft
          {
            OFFSET 6.512707 -25.843983 2.443438
            CHANNELS 3 Zrotation Xrotation Yrotation
            JOINT HandLeft
            {
              OFFSET 0.220789 -7.460107 2.560100
              CHANNELS 3 Zrotation Xrotation Yrotation
              JOINT HandTipLeft
              {
                OFFSET 0.386591 -7.915685 1.051316
                CHANNELS 3 Zrotation Xrotation Yrotation
                End Site
                {
                  OFFSET 0 0 0
                }
              }
              JOINT ThumbLeft
              {
                OFFSET -1.865096 2.271511 1.069304
                CHANNELS 3 Zrotation Xrotation Yrotation
                End Site
                {
                  OFFSET 0 0 0
                }
              }
            }
          }
        }
      }
      JOINT ShoulderRight
      {
        OFFSET 10.095168 -8.251651 -11.300452
        CHANNELS 3 Zrotation Xrotation Yrotation
        JOINT ElbowRight
        {
          OFFSET 3.217477 -28.116855 -4.053154
          CHANNELS 3 Zrotation Xrotation Yrotation
          JOINT WristRight
          {
            OFFSET 2.115807 -21.944099 5.225993
            CHANNELS 3 Zrotation Xrotation Yrotation
            JOINT HandRight
            {
              OFFSET -0.795513 -1.460807 1.464857
              CHANNELS 3 Zrotation Xrotation Yrotation
              JOINT HandTipRight
              {
                OFFSET 1.213498 -8.291335 1.268684
                CHANNELS 3 Zrotation Xrotation Yrotation
                End Site
                {
                  OFFSET 0 0 0
                }
              }
              JOINT ThumbRight
              {
                OFFSET -2.292532 0.297721 1.500994
                CHANNELS 3 Zrotation Xrotation Yrotation
                End Site
                {
                  OFFSET 0 0 0
                }
              }
            }
          }
        }
      }
    }
  }
  JOINT HipLeft
  {
    OFFSET -5.588006 1.130197 -0.860880
    CHANNELS 3 Zrotation Xrotation Yrotation
    JOINT KneeLeft
    {
      OFFSET -3.651287 -40.740457 9.418614
      CHANNELS 3 Zrotation Xrotation Yrotation
      JOINT AnkleLeft
      {
        OFFSET -8.244965 -30.283031 1.846944
        CHANNELS 3 Zrotation Xrotation Yrotation
        JOINT FootLeft
        {
          OFFSET -3.573825 -2.785255 -12.870775
          CHANNELS 3 Zrotation Xrotation Yrotation
          End Site
          {
            OFFSET 0 0 0
          }
        }
      }
    }
  }
  JOINT HipRight
  {
    OFFSET 7.376468 0.943634 -7.022931
    CHANNELS 3 Zrotation Xrotation Yrotation
    JOINT KneeRight
    {
      OFFSET -1.912342 -34.299792 1.122250
      CHANNELS 3 Zrotation Xrotation Yrotation
      JOINT AnkleRight
      {
        OFFSET -5.090021 -39.099041 -1.461653
        CHANNELS 3 Zrotation Xrotation Yrotation
        JOINT FootRight
        {
          OFFSET -3.768885 -2.654602 -12.807346
          CHANNELS 3 Zrotation Xrotation Yrotation
          End Site
          {
            OFFSET 0 0 0
          }
        }
      }
    }
  }
}
MOTION
Frames: 8
Frame Time: 0.033333
-23.155533 79.024350 251.965917 0.000000 0.000000 25.421873 -0.000000 0.000000 -25.421873 -0.000000 0.000000 0.000000 -0.000000 0.000000 0.000000 0.000000 0.000000 0.000000 -0.000000 0.000000 0.000000 -0.000000 0.000000 0.000000 -0.000000 0.000000 0.000000 -0.000000 0.000000 0.000000 0.000000 0.000000 0.000000 0.000000 0.000000 0.000000 -0.000000 0.000000 0.000000 -0.000000 0.000000 0.000000 -0.000000 0.000000 0.000000 -0.000000 0.000000 0.000000 0.000000 0.000000 0.000000 0.000000 0.000000 0.000000 -0.000000 0.000000 -25.421873 -0.000000 0.000000 0.000000 -0.000000 0.000000 0.000000 0.000000 0.000000 0.000000 -0.000000 0.000000 -25.421873 -0.000000 0.000000 0.000000 -0.000000 0.000000 0.000000 0.000000 0.000000 0.000000
-22.978843 78.747498 251.840370 0.004357 -0.052075 25.999262 0.018912 0.048715 -25.999268 -0.000000 0.000000 0.000000 -0.000000 0.000000 0.000000 0.000000 0.000000 0.000000 -0.000000 0.000000 0.000000 0.081629 1.203520 0.310411 -1.707179 -4.605407 -1.036930 5.650800 4.680335 0.909423 0.000000 0.000000 0.000000 0.000000 0.000000 0.000000 -0.000000 0.000000 0.000000 -0.964056 -0.574831 -0.289745 4.534985 8.745813 -0.942472 -6.690619 -6.753801 -0.008227 0.000000 0.000000 0.000000 0.000000 0.000000 0.000000 0.018912 0.048715 -25.999268 -0.000000 0.000000 0.000000 -0.000000 0.000000 0.000000 0.000000 0.000000 0.000000 0.018912 0.048715 -25.999268 -0.000000 0.000000 0.000000 -0.000000 0.000000 0.000000 0.000000 0.000000 0.000000
-22.819693 78.501545 251.741075 0.020530 -0.111245 26.500018 0.031264 0.108717 -26.500027 -0.000000 0.000000 0.000000 -0.000000 0.000000 0.000000 0.000000 0.000000 0.000000 -0.000000 0.000000 0.000000 0.189163 2.348187 0.606753 -3.010019 -8.410894 -1.968538 9.709306 8.328542 1.097848 0.000000 0.000000 0.000000 0.000000 0.000000 0.000000 0.744319 -1.218550 -0.239018 -2.382707 0.171005 -0.215032 6.741783 12.581784 -1.437303 -10.974293 -8.874672 -0.787895 0.000000 0.000000 0.000000 0.000000 0.000000 0.000000 -0.688304 0.490897 -26.686330 1.685317 0.387017 0.130890 -0.871714 -0.403261 0.053438 0.000000 0.000000 0.000000 -1.049897 0.107267 -26.502656 0.966912 0.483748 0.000585 -0.000000 0.000000 0.000000 0.000000 0.000000 0.000000
-22.678082 78.286491 251.668033 0.048366 -0.177518 26.926416 0.037266 0.180175 -26.926399 -0.000000 0.000000 0.000000 -0.000000 0.000000 0.000000 0.000000 0.000000 0.000000 0.328077 -0.508418 -0.635698 -0.046418 3.919778 1.520103 -3.956283 -11.550978 -2.746619 12.475271 11.080843 0.931817 0.000000 0.000000 0.000000 0.000000 0.000000 0.000000 1.019865 -1.740323 -0.331082 -3.053778 0.325707 -0.219321 7.942550 14.649409 -1.713944 -14.082125 -9.518906 -1.576287 0.000000 0.000000 0.000000 0.000000 0.000000 0.000000 -0.902529 0.704456 -27.171312 2.213977 0.539506 0.161196 -1.140178 -0.573389 0.080625 0.000000 0.000000 0.000000 -1.465458 0.187931 -26.927968 2.216246 1.130108 -0.107390 -0.872024 -0.457996 0.088663 0.000000 0.000000 0.000000
-22.554012 78.102335 251.621244 0.087761 -0.250935 27.280442 0.037016 0.263249 -27.280335 -0.000000 0.000000 0.000000 -0.000000 0.000000 0.000000 0.000000 0.000000 0.000000 0.447188 -0.710815 -0.881747 -0.033555 5.082438 2.017399 -4.567392 -14.119719 -3.333411 14.123473 13.072897 0.625159 0.000000 0.000000 0.000000 0.000000 0.000000 0.000000 1.236869 -2.211039 -0.408112 -3.394569 0.527846 -0.164676 8.525401 15.819920 -1.883409 -16.331282 -9.604708 -2.222592 0.000000 0.000000 0.000000 0.000000 0.000000 0.000000 -1.032925 0.893033 -27.562094 2.534592 0.663280 0.169253 -1.296961 -0.722405 0.109028 0.000000 0.000000 0.000000 -1.807172 0.282100 -27.279277 2.683318 1.414905 -0.139658 -1.034078 -0.588704 0.109877 0.000000 0.000000 0.000000
-22.447482 77.949079 251.600707 0.138662 -0.331563 27.563789 0.030502 0.358093 -27.563483 -0.000000 0.000000 0.000000 0.182714 0.930471 -0.145047 0.000000 0.000000 0.000000 0.570889 -0.929868 -1.144817 -0.002725 6.137690 2.500045 -4.843350 -16.178059 -3.694954 14.745113 14.410710 0.300513 0.000000 0.000000 0.000000 0.000000 0.000000 0.000000 1.398377 -2.635089 -0.471923 -3.410782 0.780215 -0.056633 8.638034 16.412984 -1.993595 -17.840126 -9.484235 -2.692156 0.000000 0.000000 0.000000 0.000000 0.000000 0.000000 -1.080799 1.054666 -27.861065 2.647493 0.757738 0.155519 -1.342007 -0.850229 0.139174 0.000000 0.000000 0.000000 -2.074668 0.387197 -27.558425 3.012055 1.653052 -0.166886 -1.130130 -0.707825 0.127282 0.000000 0.000000 0.000000
-22.398684 77.820311 251.622713 0.184893 -0.409705 27.773366 0.027318 0.448661 -27.772812 -0.000000 0.000000 0.000000 0.188756 1.079640 -0.166732 0.000000 0.000000 0.000000 0.604931 -1.322264 -1.516499 0.176228 7.292503 3.069877 -4.253551 -18.664788 -3.558514 12.983075 15.395550 -0.142678 0.000000 0.000000 0.000000 0.000000 0.000000 0.000000 1.569063 -3.049434 -0.534679 -3.105808 1.048331 0.120395 8.104039 16.350493 -2.052589 -18.621301 -9.957551 -3.147963 0.000000 0.000000 0.000000 0.000000 0.000000 0.000000 -1.061747 1.140415 -28.064136 2.711155 1.058732 0.069067 -1.426461 -1.154593 0.212137 0.000000 0.000000 0.000000 -2.388482 0.466933 -27.761878 3.413283 1.974143 -0.206708 -1.263820 -0.869051 0.150626 0.000000 0.000000 0.000000
-22.340187 77.723928 251.657986 0.242601 -0.505258 27.890415 0.021926 0.560052 -27.889452 -0.000000 0.000000 0.000000 0.200754 1.200787 -0.184920 0.000000 0.000000 0.000000 1.021036 -1.345923 -1.755806 0.088726 7.877153 3.465439 -5.464673 -20.044351 -4.243163 14.093109 15.439280 -0.186495 0.000000 0.000000 0.000000 0.000000 0.000000 0.000000 1.662981 -3.379176 -0.578979 -2.492873 1.401647 0.329829 6.586762 14.844746 -1.981093 -16.910620 -7.776102 -2.188824 0.000000 0.000000 0.000000 0.000000 0.000000 0.000000 -0.907551 1.196805 -28.145289 2.446895 1.211059 -0.022619 -1.326874 -1.334165 0.265855 0.000000 0.000000 0.000000 -2.637655 0.593553 -27.872414 3.707672 2.227826 -0.238023 -1.336704 -1.018876 0.170528 0.000000 0.000000 0.000000
